<?xml version="1.0" encoding="iso-8859-1"?>
<!-- Generator: Adobe Illustrator 19.0.0, SVG Export Plug-In . SVG Version: 6.00 Build 0)  -->
<svg version="1.1" id="Layer_1" xmlns="http://www.w3.org/2000/svg" xmlns:xlink="http://www.w3.org/1999/xlink" x="0px" y="0px"
	 viewBox="0 0 512 512" style="enable-background:new 0 0 512 512;" xml:space="preserve">
<path style="fill:#E2E2E2;" d="M396.696,95.48v204.544l-283.432,0.216V95.48"/>
<g>
	<path style="fill:#E21B1B;" d="M167.328,108.64c0,24.104-19.624,43.648-43.832,43.648s-43.824-19.544-43.824-43.648V55.648h350.624
		v52.984c0,24.104-19.624,43.648-43.824,43.648c-24.208,0-43.832-19.544-43.832-43.648"/>
	<path style="fill:#E21B1B;" d="M167.328,108.64c0,24.104,19.624,43.648,43.824,43.648s43.832-19.544,43.832-43.648"/>
	<path style="fill:#E21B1B;" d="M254.984,108.64c0,24.104,19.624,43.648,43.824,43.648c24.208,0,43.824-19.544,43.824-43.648"/>
</g>
<rect x="79.84" y="289.28" width="350.392" height="21.912"/>
<rect x="210.808" y="187.936" width="88.32" height="101.352"/>
<polyline style="fill:#E21B1B;" points="254.696,0 135.68,0 79.672,55.648 430.24,55.648 374.224,0 239.824,0 "/>
<path d="M33.376,478.632c8.144,4.168,20.656,8.336,33.576,8.336c13.904,0,21.256-5.76,21.256-14.496
	c0-8.352-6.36-13.112-22.456-18.88C43.512,445.848,29,433.536,29,414.072c0-22.848,19.08-40.336,50.664-40.336
	c15.088,0,26.216,3.184,34.168,6.76l-6.752,24.432c-5.368-2.584-14.904-6.36-28.008-6.36c-13.112,0-19.48,5.96-19.48,12.92
	c0,8.536,7.552,12.312,24.832,18.872c23.648,8.736,34.76,21.056,34.76,39.92c0,22.448-17.28,41.52-54.032,41.52
	c-15.296,0-30.4-3.976-37.936-8.144L33.376,478.632z"/>
<path d="M171.4,384.864v27.816h21.656v22.256H171.4v35.16c0,11.72,2.784,17.08,11.928,17.08c3.768,0,6.752-0.384,8.936-0.784
	l0.208,22.848c-3.976,1.584-11.128,2.584-19.672,2.584c-9.736,0-17.88-3.384-22.656-8.352c-5.552-5.76-8.336-15.088-8.336-28.8
	v-39.728h-12.904v-22.256h12.904v-21.056L171.4,384.864z"/>
<path d="M305.448,460.152c0,35.56-25.224,51.848-51.24,51.848c-28.408,0-50.264-18.664-50.264-50.056s20.664-51.448,51.848-51.448
	C285.584,410.496,305.448,430.952,305.448,460.152z M235.128,461.144c0,16.688,6.96,29.208,19.864,29.208
	c11.72,0,19.272-11.72,19.272-29.208c0-14.496-5.56-29.2-19.272-29.2C240.496,431.944,235.128,446.84,235.128,461.144z"/>
<path d="M324.088,444.664c0-14.304-0.4-23.648-0.8-31.984h26.024l0.992,17.88h0.8c4.968-14.104,16.88-20.056,26.224-20.056
	c2.776,0,4.168,0,6.352,0.384v28.408c-2.184-0.384-4.76-0.784-8.144-0.784c-11.128,0-18.68,5.952-20.664,15.296
	c-0.384,1.984-0.592,4.36-0.592,6.752v49.272h-30.192L324.088,444.664L324.088,444.664z"/>
<path d="M421.208,470.88c0.984,12.52,13.304,18.48,27.4,18.48c10.336,0,18.68-1.392,26.824-3.976l3.976,20.456
	c-9.936,3.976-22.048,5.96-35.16,5.96c-32.976,0-51.848-19.08-51.848-49.464c0-24.64,15.296-51.848,49.064-51.848
	c31.392,0,43.32,24.432,43.32,48.472c0,5.16-0.608,9.736-0.992,11.912h-62.584V470.88z M456.76,450.224
	c0-7.36-3.176-19.672-17.08-19.672c-12.712,0-17.88,11.528-18.68,19.672H456.76z"/>
<g>
</g>
<g>
</g>
<g>
</g>
<g>
</g>
<g>
</g>
<g>
</g>
<g>
</g>
<g>
</g>
<g>
</g>
<g>
</g>
<g>
</g>
<g>
</g>
<g>
</g>
<g>
</g>
<g>
</g>
</svg>
